<svg width="33" height="40" viewBox="0 0 33 40" fill="none" xmlns="http://www.w3.org/2000/svg">
<path d="M28.5 22.36V16C28.4971 13.1662 27.4915 10.4249 25.6612 8.26155C23.8309 6.09816 21.2941 4.65229 18.5 4.18V2C18.5 1.46957 18.2893 0.960859 17.9142 0.585786C17.5391 0.210714 17.0304 0 16.5 0C15.9696 0 15.4609 0.210714 15.0858 0.585786C14.7107 0.960859 14.5 1.46957 14.5 2V4.18C11.7059 4.65229 9.16905 6.09816 7.33877 8.26155C5.50849 10.4249 4.50287 13.1662 4.5 16V22.36C3.3329 22.7726 2.322 23.5361 1.60588 24.5459C0.889757 25.5556 0.503479 26.7621 0.5 28V32C0.5 32.5304 0.710714 33.0391 1.08579 33.4142C1.46086 33.7893 1.96957 34 2.5 34H8.78C9.24057 35.6947 10.246 37.1908 11.6412 38.2575C13.0364 39.3241 14.7438 39.902 16.5 39.902C18.2562 39.902 19.9636 39.3241 21.3588 38.2575C22.754 37.1908 23.7594 35.6947 24.22 34H30.5C31.0304 34 31.5391 33.7893 31.9142 33.4142C32.2893 33.0391 32.5 32.5304 32.5 32V28C32.4965 26.7621 32.1102 25.5556 31.3941 24.5459C30.678 23.5361 29.6671 22.7726 28.5 22.36ZM8.5 16C8.5 13.8783 9.34285 11.8434 10.8431 10.3431C12.3434 8.84285 14.3783 8 16.5 8C18.6217 8 20.6566 8.84285 22.1569 10.3431C23.6571 11.8434 24.5 13.8783 24.5 16V26H16.5H8.5V16ZM16.5 36C15.8019 35.9958 15.1171 35.809 14.5137 35.4581C13.9102 35.1072 13.409 34.6046 13.06 34H19.94C19.591 34.6046 19.0898 35.1072 18.4863 35.4581C17.8829 35.809 17.1981 35.9958 16.5 36ZM28.5 30H4.5V28C4.5 27.4696 4.71071 26.9609 5.08579 26.5858C5.46086 26.2107 5.96957 26 6.5 26H16.5H26.5C27.0304 26 27.5391 26.2107 27.9142 26.5858C28.2893 26.9609 28.5 27.4696 28.5 28V30Z" fill="#53A21A"/>
</svg>
